<svg width="218" height="51" viewBox="0 0 218 51" fill="none" xmlns="http://www.w3.org/2000/svg">
<g filter="url(#filter0_i_132_248)">
<path d="M3.32262 37V0.636363H17.8823C20.5575 0.636363 22.7888 1.03291 24.5762 1.82599C26.3636 2.61908 27.7071 3.71993 28.6067 5.12855C29.5063 6.52533 29.9561 8.13518 29.9561 9.9581C29.9561 11.3786 29.6721 12.6274 29.1039 13.7045C28.5357 14.7699 27.7544 15.6458 26.7601 16.3324C25.7776 17.0071 24.6531 17.4865 23.3865 17.7706V18.1257C24.7715 18.1849 26.0676 18.5755 27.275 19.2976C28.4943 20.0196 29.4827 21.0317 30.2402 22.3338C30.9978 23.6241 31.3766 25.1629 31.3766 26.9503C31.3766 28.8797 30.8972 30.602 29.9384 32.1172C28.9914 33.6205 27.5887 34.8101 25.7303 35.6861C23.8719 36.562 21.5814 37 18.8588 37H3.32262ZM11.0108 30.7145H17.2786C19.4211 30.7145 20.9836 30.3061 21.9661 29.4893C22.9486 28.6607 23.4398 27.5599 23.4398 26.1868C23.4398 25.1806 23.1971 24.2929 22.7118 23.5234C22.2265 22.754 21.534 22.1503 20.6344 21.7124C19.7466 21.2744 18.6872 21.0554 17.4561 21.0554H11.0108V30.7145ZM11.0108 15.853H16.7104C17.7639 15.853 18.699 15.6695 19.5158 15.3026C20.3444 14.9238 20.9954 14.3911 21.4689 13.7045C21.9542 13.018 22.1969 12.1953 22.1969 11.2365C22.1969 9.92259 21.7293 8.86316 20.7942 8.05824C19.8709 7.25331 18.557 6.85085 16.8525 6.85085H11.0108V15.853ZM44.0675 0.636363V37H36.3793V0.636363H44.0675ZM83.8091 18.8182C83.8091 22.7836 83.0575 26.1572 81.5542 28.9389C80.0627 31.7206 78.0267 33.8454 75.4462 35.3132C72.8775 36.7692 69.9893 37.4972 66.7814 37.4972C63.5499 37.4972 60.6498 36.7633 58.0811 35.2955C55.5125 33.8277 53.4824 31.7029 51.9909 28.9212C50.4995 26.1394 49.7537 22.7718 49.7537 18.8182C49.7537 14.8527 50.4995 11.4792 51.9909 8.69744C53.4824 5.91572 55.5125 3.79687 58.0811 2.34091C60.6498 0.873105 63.5499 0.139203 66.7814 0.139203C69.9893 0.139203 72.8775 0.873105 75.4462 2.34091C78.0267 3.79687 80.0627 5.91572 81.5542 8.69744C83.0575 11.4792 83.8091 14.8527 83.8091 18.8182ZM76.0144 18.8182C76.0144 16.2495 75.6297 14.0833 74.8603 12.3196C74.1027 10.5559 73.0314 9.21828 71.6465 8.30682C70.2615 7.39536 68.6399 6.93963 66.7814 6.93963C64.923 6.93963 63.3013 7.39536 61.9164 8.30682C60.5314 9.21828 59.4542 10.5559 58.6848 12.3196C57.9273 14.0833 57.5485 16.2495 57.5485 18.8182C57.5485 21.3868 57.9273 23.553 58.6848 25.3168C59.4542 27.0805 60.5314 28.4181 61.9164 29.3295C63.3013 30.241 64.923 30.6967 66.7814 30.6967C68.6399 30.6967 70.2615 30.241 71.6465 29.3295C73.0314 28.4181 74.1027 27.0805 74.8603 25.3168C75.6297 23.553 76.0144 21.3868 76.0144 18.8182ZM86.4592 6.97514V0.636363H116.324V6.97514H105.191V37H97.592V6.97514H86.4592ZM121.243 37V0.636363H128.931V30.6612H144.52V37H121.243ZM156.807 37H148.569L161.122 0.636363H171.029L183.565 37H175.326L166.218 8.94602H165.934L156.807 37ZM156.292 22.7067H175.752V28.7081H156.292V22.7067ZM187.942 37V0.636363H202.501C205.177 0.636363 207.408 1.03291 209.195 1.82599C210.983 2.61908 212.326 3.71993 213.226 5.12855C214.125 6.52533 214.575 8.13518 214.575 9.9581C214.575 11.3786 214.291 12.6274 213.723 13.7045C213.155 14.7699 212.374 15.6458 211.379 16.3324C210.397 17.0071 209.272 17.4865 208.006 17.7706V18.1257C209.391 18.1849 210.687 18.5755 211.894 19.2976C213.113 20.0196 214.102 21.0317 214.859 22.3338C215.617 23.6241 215.996 25.1629 215.996 26.9503C215.996 28.8797 215.516 30.602 214.558 32.1172C213.611 33.6205 212.208 34.8101 210.349 35.6861C208.491 36.562 206.201 37 203.478 37H187.942ZM195.63 30.7145H201.898C204.04 30.7145 205.603 30.3061 206.585 29.4893C207.568 28.6607 208.059 27.5599 208.059 26.1868C208.059 25.1806 207.816 24.2929 207.331 23.5234C206.846 22.754 206.153 22.1503 205.254 21.7124C204.366 21.2744 203.306 21.0554 202.075 21.0554H195.63V30.7145ZM195.63 15.853H201.33C202.383 15.853 203.318 15.6695 204.135 15.3026C204.964 14.9238 205.615 14.3911 206.088 13.7045C206.573 13.018 206.816 12.1953 206.816 11.2365C206.816 9.92259 206.348 8.86316 205.413 8.05824C204.49 7.25331 203.176 6.85085 201.472 6.85085H195.63V15.853Z" fill="url(#paint0_linear_132_248)"/>
<path d="M0.162109 46.9432H217.825V50.3523H0.162109V46.9432Z" fill="url(#paint1_linear_132_248)"/>
</g>
<defs>
<filter id="filter0_i_132_248" x="0.162109" y="0.139191" width="217.662" height="54.2131" filterUnits="userSpaceOnUse" color-interpolation-filters="sRGB">
<feFlood flood-opacity="0" result="BackgroundImageFix"/>
<feBlend mode="normal" in="SourceGraphic" in2="BackgroundImageFix" result="shape"/>
<feColorMatrix in="SourceAlpha" type="matrix" values="0 0 0 0 0 0 0 0 0 0 0 0 0 0 0 0 0 0 127 0" result="hardAlpha"/>
<feOffset dy="4"/>
<feGaussianBlur stdDeviation="2"/>
<feComposite in2="hardAlpha" operator="arithmetic" k2="-1" k3="1"/>
<feColorMatrix type="matrix" values="0 0 0 0 0 0 0 0 0 0 0 0 0 0 0 0 0 0 0.25 0"/>
<feBlend mode="normal" in2="shape" result="effect1_innerShadow_132_248"/>
</filter>
<linearGradient id="paint0_linear_132_248" x1="109" y1="117" x2="184" y2="-28.5" gradientUnits="userSpaceOnUse">
<stop stop-color="#1C8FFB"/>
<stop offset="1" stop-color="#1DDB1A"/>
</linearGradient>
<linearGradient id="paint1_linear_132_248" x1="109" y1="117" x2="184" y2="-28.5" gradientUnits="userSpaceOnUse">
<stop stop-color="#1C8FFB"/>
<stop offset="1" stop-color="#1DDB1A"/>
</linearGradient>
</defs>
</svg>
